<!DOCTYPE svg PUBLIC "-//W3C//DTD SVG 1.1//EN" "http://www.w3.org/Graphics/SVG/1.1/DTD/svg11.dtd">
<!-- Uploaded to: SVG Repo, www.svgrepo.com, Transformed by: SVG Repo Mixer Tools -->
<svg fill="#ffffff" height="800px" width="800px" version="1.1" id="Layer_1" xmlns="http://www.w3.org/2000/svg" xmlns:xlink="http://www.w3.org/1999/xlink" viewBox="0 0 512 512" xml:space="preserve">
<g id="SVGRepo_bgCarrier" stroke-width="0"/>
<g id="SVGRepo_tracerCarrier" stroke-linecap="round" stroke-linejoin="round"/>
<g id="SVGRepo_iconCarrier"> <g> <g> <polygon points="456.348,133.565 456.348,66.783 422.957,66.783 422.957,33.391 389.565,33.391 389.565,0 122.435,0 122.435,33.391 89.044,33.391 89.044,66.783 55.652,66.783 55.652,133.565 22.261,133.565 22.261,512 122.435,512 122.435,478.609 155.826,478.609 155.826,445.217 222.609,445.217 222.609,411.826 189.217,411.826 189.217,378.435 155.826,378.435 155.826,311.652 122.435,311.652 122.435,200.348 155.826,200.348 155.826,166.957 189.217,166.957 189.217,200.348 222.609,200.348 222.609,233.739 389.565,233.739 389.565,311.652 356.174,311.652 356.174,378.435 322.783,378.435 322.783,411.826 289.391,411.826 289.391,445.217 356.174,445.217 356.174,478.609 389.565,478.609 389.565,512 489.739,512 489.739,133.565 "/> </g> </g> </g>
</svg>